<svg xmlns="http://www.w3.org/2000/svg" xmlns:xlink="http://www.w3.org/1999/xlink" width="400" zoomAndPan="magnify" viewBox="0 0 300 74.999997" height="100" preserveAspectRatio="xMidYMid meet" version="1.0"><defs><clipPath id="f345434f6c"><path d="M 13.433594 9.535156 L 51 9.535156 L 51 29.941406 L 13.433594 29.941406 Z M 13.433594 9.535156 " clip-rule="nonzero"/></clipPath><clipPath id="0e56f2f506"><path d="M 50.957031 9.605469 L 50.957031 20.253906 C 50.957031 20.253906 42.855469 20.179688 34.019531 21.5 C 33.9375 21.515625 33.851562 21.523438 33.769531 21.535156 C 26.542969 22.632812 18.875 24.667969 14.769531 28.4375 C 14.296875 28.867188 13.871094 29.320312 13.5 29.800781 L 13.5 19.335938 C 13.5 17.410156 18.925781 14.605469 20.59375 13.941406 C 29.726562 10.300781 41.214844 9.8125 50.957031 9.605469 " clip-rule="nonzero"/></clipPath><clipPath id="91a30710bc"><path d="M 0.441406 0.601562 L 38 0.601562 L 38 20.941406 L 0.441406 20.941406 Z M 0.441406 0.601562 " clip-rule="nonzero"/></clipPath><clipPath id="2d4899eb8a"><path d="M 37.957031 0.605469 L 37.957031 11.253906 C 37.957031 11.253906 29.855469 11.179688 21.019531 12.5 C 20.9375 12.515625 20.851562 12.523438 20.769531 12.535156 C 13.542969 13.632812 5.875 15.667969 1.769531 19.4375 C 1.296875 19.867188 0.871094 20.320312 0.5 20.800781 L 0.5 10.335938 C 0.5 8.410156 5.925781 5.605469 7.59375 4.941406 C 16.726562 1.300781 28.214844 0.8125 37.957031 0.605469 " clip-rule="nonzero"/></clipPath><clipPath id="351ec858ff"><rect x="0" width="38" y="0" height="21"/></clipPath><clipPath id="545dc2a2c2"><path d="M 13.433594 25.761719 L 51 25.761719 L 51 46 L 13.433594 46 Z M 13.433594 25.761719 " clip-rule="nonzero"/></clipPath><clipPath id="9773cda0fb"><path d="M 50.957031 25.761719 L 50.957031 36.414062 C 50.957031 36.414062 42.855469 36.339844 34.019531 37.65625 C 33.9375 37.671875 33.851562 37.683594 33.769531 37.695312 C 26.542969 38.792969 18.875 40.828125 14.769531 44.59375 C 14.296875 45.023438 13.871094 45.480469 13.5 45.960938 L 13.5 35.496094 C 13.5 33.566406 18.925781 30.765625 20.59375 30.101562 C 29.726562 26.457031 41.214844 25.96875 50.957031 25.761719 " clip-rule="nonzero"/></clipPath><clipPath id="d61d3d63eb"><path d="M 0.441406 0.761719 L 38 0.761719 L 38 21 L 0.441406 21 Z M 0.441406 0.761719 " clip-rule="nonzero"/></clipPath><clipPath id="b79ae97364"><path d="M 37.957031 0.761719 L 37.957031 11.414062 C 37.957031 11.414062 29.855469 11.339844 21.019531 12.65625 C 20.9375 12.671875 20.851562 12.683594 20.769531 12.695312 C 13.542969 13.792969 5.875 15.828125 1.769531 19.59375 C 1.296875 20.023438 0.871094 20.480469 0.5 20.960938 L 0.5 10.496094 C 0.5 8.566406 5.925781 5.765625 7.59375 5.101562 C 16.726562 1.457031 28.214844 0.96875 37.957031 0.761719 " clip-rule="nonzero"/></clipPath><clipPath id="4a7fd45685"><rect x="0" width="38" y="0" height="21"/></clipPath><clipPath id="0c73ebcbae"><path d="M 17 44.078125 L 51 44.078125 L 51 58.214844 L 17 58.214844 Z M 17 44.078125 " clip-rule="nonzero"/></clipPath><clipPath id="a1b526b4c3"><path d="M 50.957031 47.429688 L 50.957031 58.078125 C 43.019531 57.859375 34.6875 57.492188 27.007812 55.40625 C 21.296875 53.855469 15.6875 50.941406 17.449219 47.847656 C 17.667969 47.457031 17.996094 47.136719 18.355469 46.875 C 19.710938 45.878906 21.566406 44.96875 23.851562 44.167969 C 32.769531 46.308594 41.8125 47.039062 50.960938 47.429688 " clip-rule="nonzero"/></clipPath><clipPath id="da75159d4e"><path d="M 0 0.160156 L 34 0.160156 L 34 14.078125 L 0 14.078125 Z M 0 0.160156 " clip-rule="nonzero"/></clipPath><clipPath id="a87a524515"><path d="M 33.957031 3.429688 L 33.957031 14.078125 C 26.019531 13.859375 17.6875 13.492188 10.007812 11.40625 C 4.296875 9.855469 -1.3125 6.941406 0.449219 3.847656 C 0.667969 3.457031 0.996094 3.136719 1.355469 2.875 C 2.710938 1.878906 4.566406 0.96875 6.851562 0.167969 C 15.769531 2.308594 24.8125 3.039062 33.960938 3.429688 " clip-rule="nonzero"/></clipPath><clipPath id="366eb01422"><rect x="0" width="34" y="0" height="15"/></clipPath><clipPath id="28caacf2b6"><path d="M 57 45.398438 L 94.5625 45.398438 L 94.5625 65.800781 L 57 65.800781 Z M 57 45.398438 " clip-rule="nonzero"/></clipPath><clipPath id="aebb255838"><path d="M 57.039062 65.664062 L 57.039062 55.015625 C 57.039062 55.015625 65.140625 55.089844 73.976562 53.769531 C 74.058594 53.753906 74.144531 53.742188 74.230469 53.734375 C 81.453125 52.636719 89.125 50.601562 93.230469 46.832031 C 93.699219 46.402344 94.125 45.949219 94.496094 45.46875 L 94.496094 55.933594 C 94.496094 57.859375 89.070312 60.664062 87.40625 61.328125 C 78.269531 64.96875 66.78125 65.457031 57.039062 65.664062 " clip-rule="nonzero"/></clipPath><clipPath id="8e1353e638"><path d="M 0 0.398438 L 37.558594 0.398438 L 37.558594 20.761719 L 0 20.761719 Z M 0 0.398438 " clip-rule="nonzero"/></clipPath><clipPath id="292cd05984"><path d="M 0.0390625 20.664062 L 0.0390625 10.015625 C 0.0390625 10.015625 8.140625 10.089844 16.976562 8.769531 C 17.058594 8.753906 17.144531 8.742188 17.230469 8.734375 C 24.453125 7.636719 32.125 5.601562 36.230469 1.832031 C 36.699219 1.402344 37.125 0.949219 37.496094 0.46875 L 37.496094 10.933594 C 37.496094 12.859375 32.070312 15.664062 30.40625 16.328125 C 21.269531 19.96875 9.78125 20.457031 0.0390625 20.664062 " clip-rule="nonzero"/></clipPath><clipPath id="d9626363fa"><rect x="0" width="38" y="0" height="21"/></clipPath><clipPath id="0b9aef59a5"><path d="M 57 29.171875 L 94.5625 29.171875 L 94.5625 49.574219 L 57 49.574219 Z M 57 29.171875 " clip-rule="nonzero"/></clipPath><clipPath id="88e0af2acb"><path d="M 57.039062 49.507812 L 57.039062 38.855469 C 57.039062 38.855469 65.140625 38.929688 73.976562 37.613281 C 74.058594 37.597656 74.144531 37.585938 74.230469 37.574219 C 81.453125 36.476562 89.125 34.441406 93.230469 30.675781 C 93.699219 30.246094 94.125 29.789062 94.496094 29.308594 L 94.496094 39.773438 C 94.496094 41.703125 89.070312 44.503906 87.40625 45.167969 C 78.269531 48.8125 66.78125 49.300781 57.039062 49.507812 " clip-rule="nonzero"/></clipPath><clipPath id="0c4477ee6b"><path d="M 0 0.28125 L 37.558594 0.28125 L 37.558594 20.574219 L 0 20.574219 Z M 0 0.28125 " clip-rule="nonzero"/></clipPath><clipPath id="02ac5b3f04"><path d="M 0.0390625 20.507812 L 0.0390625 9.855469 C 0.0390625 9.855469 8.140625 9.929688 16.976562 8.613281 C 17.058594 8.597656 17.144531 8.585938 17.230469 8.574219 C 24.453125 7.476562 32.125 5.441406 36.230469 1.675781 C 36.699219 1.246094 37.125 0.789062 37.496094 0.308594 L 37.496094 10.773438 C 37.496094 12.703125 32.070312 15.503906 30.40625 16.167969 C 21.269531 19.8125 9.78125 20.300781 0.0390625 20.507812 " clip-rule="nonzero"/></clipPath><clipPath id="73fdc6d5ac"><rect x="0" width="38" y="0" height="21"/></clipPath><clipPath id="310b030554"><path d="M 57 17.121094 L 91 17.121094 L 91 31.261719 L 57 31.261719 Z M 57 17.121094 " clip-rule="nonzero"/></clipPath><clipPath id="8a28453d45"><path d="M 57.039062 27.839844 L 57.039062 17.191406 C 64.980469 17.40625 73.308594 17.777344 80.988281 19.863281 C 86.699219 21.414062 92.3125 24.328125 90.546875 27.421875 C 90.328125 27.8125 90.003906 28.128906 89.640625 28.394531 C 88.285156 29.390625 86.429688 30.300781 84.144531 31.101562 C 75.230469 28.960938 66.1875 28.230469 57.039062 27.839844 " clip-rule="nonzero"/></clipPath><clipPath id="bf35240756"><path d="M 0 0.121094 L 34 0.121094 L 34 14.199219 L 0 14.199219 Z M 0 0.121094 " clip-rule="nonzero"/></clipPath><clipPath id="ea8323ac70"><path d="M 0.0390625 10.839844 L 0.0390625 0.191406 C 7.980469 0.40625 16.308594 0.777344 23.988281 2.863281 C 29.699219 4.414062 35.3125 7.328125 33.546875 10.421875 C 33.328125 10.8125 33.003906 11.128906 32.640625 11.394531 C 31.285156 12.390625 29.429688 13.300781 27.144531 14.101562 C 18.230469 11.960938 9.1875 11.230469 0.0390625 10.839844 " clip-rule="nonzero"/></clipPath><clipPath id="a6074bd3c6"><rect x="0" width="34" y="0" height="15"/></clipPath><clipPath id="ebd87690ed"><path d="M 115.847656 26.578125 L 146.886719 26.578125 L 146.886719 52.976562 L 115.847656 52.976562 Z M 115.847656 26.578125 " clip-rule="nonzero"/></clipPath><clipPath id="aae534b2b4"><path d="M 134.921875 49.039062 C 137.902344 49.039062 138.929688 47.753906 138.929688 44.261719 L 138.929688 35.289062 C 138.929688 31.796875 137.898438 30.511719 134.921875 30.511719 L 127.863281 30.511719 C 124.851562 30.511719 123.859375 31.796875 123.859375 35.289062 L 123.859375 44.261719 C 123.859375 47.753906 124.851562 49.039062 127.863281 49.039062 Z M 126.171875 52.976562 C 118.011719 52.976562 115.953125 49.921875 115.953125 39.777344 C 115.953125 29.589844 118.011719 26.578125 126.171875 26.578125 L 136.578125 26.578125 C 144.738281 26.578125 146.835938 29.589844 146.835938 39.777344 C 146.835938 49.921875 144.738281 52.976562 136.578125 52.976562 Z M 126.171875 52.976562 " clip-rule="nonzero"/></clipPath><clipPath id="39701fbbc7"><path d="M 0.921875 0.578125 L 31.878906 0.578125 L 31.878906 26.976562 L 0.921875 26.976562 Z M 0.921875 0.578125 " clip-rule="nonzero"/></clipPath><clipPath id="3f7b158642"><path d="M 19.921875 23.039062 C 22.902344 23.039062 23.929688 21.753906 23.929688 18.261719 L 23.929688 9.289062 C 23.929688 5.796875 22.898438 4.511719 19.921875 4.511719 L 12.863281 4.511719 C 9.851562 4.511719 8.859375 5.796875 8.859375 9.289062 L 8.859375 18.261719 C 8.859375 21.753906 9.851562 23.039062 12.863281 23.039062 Z M 11.171875 26.976562 C 3.011719 26.976562 0.953125 23.921875 0.953125 13.777344 C 0.953125 3.589844 3.011719 0.578125 11.171875 0.578125 L 21.578125 0.578125 C 29.738281 0.578125 31.835938 3.589844 31.835938 13.777344 C 31.835938 23.921875 29.738281 26.976562 21.578125 26.976562 Z M 11.171875 26.976562 " clip-rule="nonzero"/></clipPath><clipPath id="7d1166220e"><rect x="0" width="32" y="0" height="27"/></clipPath><clipPath id="268d1edb5f"><path d="M 152 26.808594 L 182.445312 26.808594 L 182.445312 52.710938 L 152 52.710938 Z M 152 26.808594 " clip-rule="nonzero"/></clipPath><clipPath id="3d49820c29"><path d="M 159.925781 30.84375 L 159.925781 38.523438 L 169.886719 38.523438 C 171.910156 38.523438 172.605469 37.75 172.605469 35.582031 L 172.605469 33.746094 C 172.605469 31.578125 171.90625 30.84375 169.886719 30.84375 Z M 182.390625 52.644531 L 172.902344 52.644531 L 166.0625 42.425781 L 159.925781 42.425781 L 159.925781 52.644531 L 152.019531 52.644531 L 152.019531 26.90625 L 174.042969 26.90625 C 178.527344 26.90625 180.511719 29.113281 180.511719 34.667969 C 180.511719 39.664062 178.929688 41.945312 175.367188 42.351562 Z M 182.390625 52.644531 " clip-rule="nonzero"/></clipPath><clipPath id="d149434274"><path d="M 0 0.878906 L 30.398438 0.878906 L 30.398438 26.710938 L 0 26.710938 Z M 0 0.878906 " clip-rule="nonzero"/></clipPath><clipPath id="64f11e3e28"><path d="M 7.925781 4.84375 L 7.925781 12.523438 L 17.886719 12.523438 C 19.910156 12.523438 20.605469 11.75 20.605469 9.582031 L 20.605469 7.746094 C 20.605469 5.578125 19.90625 4.84375 17.886719 4.84375 Z M 30.390625 26.644531 L 20.902344 26.644531 L 14.0625 16.425781 L 7.925781 16.425781 L 7.925781 26.644531 L 0.0195312 26.644531 L 0.0195312 0.90625 L 22.042969 0.90625 C 26.527344 0.90625 28.511719 3.113281 28.511719 8.667969 C 28.511719 13.664062 26.929688 15.945312 23.367188 16.351562 Z M 30.390625 26.644531 " clip-rule="nonzero"/></clipPath><clipPath id="4e240a0e11"><rect x="0" width="31" y="0" height="27"/></clipPath><clipPath id="c2f200b46e"><path d="M 186.285156 26.90625 L 212.644531 26.90625 L 212.644531 30.84375 L 186.285156 30.84375 Z M 186.285156 30.84375 L 194.191406 30.84375 L 194.191406 37.386719 L 186.285156 37.386719 Z M 186.285156 37.386719 L 211.546875 37.386719 L 211.546875 41.320312 L 186.285156 41.320312 Z M 186.285156 41.320312 L 194.191406 41.320312 L 194.191406 48.710938 L 186.285156 48.710938 Z M 186.285156 48.710938 L 212.648438 48.710938 L 212.648438 52.644531 L 186.285156 52.644531 Z M 186.285156 48.710938 " clip-rule="nonzero"/></clipPath><clipPath id="b24b616f31"><path d="M 0.285156 0.90625 L 26.644531 0.90625 L 26.644531 4.84375 L 0.285156 4.84375 Z M 0.285156 4.84375 L 8.191406 4.84375 L 8.191406 11.386719 L 0.285156 11.386719 Z M 0.285156 11.386719 L 25.546875 11.386719 L 25.546875 15.320312 L 0.285156 15.320312 Z M 0.285156 15.320312 L 8.191406 15.320312 L 8.191406 22.710938 L 0.285156 22.710938 Z M 0.285156 22.710938 L 26.648438 22.710938 L 26.648438 26.644531 L 0.285156 26.644531 Z M 0.285156 22.710938 " clip-rule="nonzero"/></clipPath><clipPath id="adae509089"><rect x="0" width="27" y="0" height="27"/></clipPath><clipPath id="7d374acc26"><path d="M 216.519531 26.53125 L 247.546875 26.53125 L 247.546875 57.835938 L 216.519531 57.835938 Z M 216.519531 26.53125 " clip-rule="nonzero"/></clipPath><clipPath id="6e4ac58195"><path d="M 224.484375 44.261719 C 224.484375 47.753906 225.480469 49.039062 228.492188 49.039062 L 235.550781 49.039062 C 238.53125 49.039062 239.554688 47.753906 239.554688 44.261719 L 239.554688 35.289062 C 239.554688 31.796875 238.523438 30.511719 235.550781 30.511719 L 228.492188 30.511719 C 225.480469 30.511719 224.484375 31.796875 224.484375 35.289062 Z M 237.207031 52.976562 L 236.984375 52.976562 L 242.351562 57.792969 L 231.875 57.792969 L 227.242188 52.976562 L 226.800781 52.976562 C 218.636719 52.976562 216.578125 49.921875 216.578125 39.777344 C 216.578125 29.589844 218.636719 26.578125 226.800781 26.578125 L 237.207031 26.578125 C 245.367188 26.578125 247.464844 29.589844 247.464844 39.777344 C 247.464844 49.921875 245.367188 52.976562 237.207031 52.976562 " clip-rule="nonzero"/></clipPath><clipPath id="0854642c02"><path d="M 0.519531 0.53125 L 31.546875 0.53125 L 31.546875 31.835938 L 0.519531 31.835938 Z M 0.519531 0.53125 " clip-rule="nonzero"/></clipPath><clipPath id="4c873f6326"><path d="M 8.484375 18.261719 C 8.484375 21.753906 9.480469 23.039062 12.492188 23.039062 L 19.550781 23.039062 C 22.53125 23.039062 23.554688 21.753906 23.554688 18.261719 L 23.554688 9.289062 C 23.554688 5.796875 22.523438 4.511719 19.550781 4.511719 L 12.492188 4.511719 C 9.480469 4.511719 8.484375 5.796875 8.484375 9.289062 Z M 21.207031 26.976562 L 20.984375 26.976562 L 26.351562 31.792969 L 15.875 31.792969 L 11.242188 26.976562 L 10.800781 26.976562 C 2.636719 26.976562 0.578125 23.921875 0.578125 13.777344 C 0.578125 3.589844 2.636719 0.578125 10.800781 0.578125 L 21.207031 0.578125 C 29.367188 0.578125 31.464844 3.589844 31.464844 13.777344 C 31.464844 23.921875 29.367188 26.976562 21.207031 26.976562 " clip-rule="nonzero"/></clipPath><clipPath id="3c8f4a176c"><rect x="0" width="32" y="0" height="32"/></clipPath><clipPath id="3fd20cc5f6"><path d="M 251.011719 26.808594 L 278.296875 26.808594 L 278.296875 52.710938 L 251.011719 52.710938 Z M 251.011719 26.808594 " clip-rule="nonzero"/></clipPath><clipPath id="8c7314eaff"><path d="M 251.546875 52.644531 L 251.546875 48.710938 L 268.386719 48.710938 C 269.710938 48.710938 270.261719 48.269531 270.261719 47.347656 C 270.261719 46.464844 269.78125 45.988281 267.578125 44.886719 C 252.726562 38.523438 251.070312 37.53125 251.070312 33.453125 C 251.070312 28.933594 253.640625 26.90625 259.453125 26.90625 L 276.144531 26.90625 L 276.144531 30.84375 L 260.84375 30.84375 C 259.519531 30.84375 258.96875 31.246094 258.96875 32.167969 C 258.96875 32.976562 259.449219 33.453125 261.617188 34.59375 C 276.507812 40.957031 278.160156 41.949219 278.160156 46.066406 C 278.160156 50.625 275.589844 52.648438 269.777344 52.648438 Z M 251.546875 52.644531 " clip-rule="nonzero"/></clipPath><clipPath id="e63a198640"><path d="M 0.0390625 0.878906 L 27.296875 0.878906 L 27.296875 26.710938 L 0.0390625 26.710938 Z M 0.0390625 0.878906 " clip-rule="nonzero"/></clipPath><clipPath id="b553501a5d"><path d="M 0.546875 26.644531 L 0.546875 22.710938 L 17.386719 22.710938 C 18.710938 22.710938 19.261719 22.269531 19.261719 21.347656 C 19.261719 20.464844 18.78125 19.988281 16.578125 18.886719 C 1.726562 12.523438 0.0703125 11.53125 0.0703125 7.453125 C 0.0703125 2.933594 2.640625 0.90625 8.453125 0.90625 L 25.144531 0.90625 L 25.144531 4.84375 L 9.84375 4.84375 C 8.519531 4.84375 7.96875 5.246094 7.96875 6.167969 C 7.96875 6.976562 8.449219 7.453125 10.617188 8.59375 C 25.507812 14.957031 27.160156 15.949219 27.160156 20.066406 C 27.160156 24.625 24.589844 26.648438 18.777344 26.648438 Z M 0.546875 26.644531 " clip-rule="nonzero"/></clipPath><clipPath id="d305020e5c"><rect x="0" width="28" y="0" height="27"/></clipPath></defs><g clip-path="url(#f345434f6c)"><g clip-path="url(#0e56f2f506)"><g transform="matrix(1, 0, 0, 1, 13, 9)"><g clip-path="url(#351ec858ff)"><g clip-path="url(#91a30710bc)"><g clip-path="url(#2d4899eb8a)"><rect x="-79" width="432" fill="#2e2ae1" height="107.999996" y="-25.499999" fill-opacity="1"/></g></g></g></g></g></g><g clip-path="url(#545dc2a2c2)"><g clip-path="url(#9773cda0fb)"><g transform="matrix(1, 0, 0, 1, 13, 25)"><g clip-path="url(#4a7fd45685)"><g clip-path="url(#d61d3d63eb)"><g clip-path="url(#b79ae97364)"><rect x="-79" width="432" fill="#2e2ae1" height="107.999996" y="-41.499999" fill-opacity="1"/></g></g></g></g></g></g><g clip-path="url(#0c73ebcbae)"><g clip-path="url(#a1b526b4c3)"><g transform="matrix(1, 0, 0, 1, 17, 44)"><g clip-path="url(#366eb01422)"><g clip-path="url(#da75159d4e)"><g clip-path="url(#a87a524515)"><rect x="-83" width="432" fill="#2e2ae1" height="107.999996" y="-60.499999" fill-opacity="1"/></g></g></g></g></g></g><g clip-path="url(#28caacf2b6)"><g clip-path="url(#aebb255838)"><g transform="matrix(1, 0, 0, 1, 57, 45)"><g clip-path="url(#d9626363fa)"><g clip-path="url(#8e1353e638)"><g clip-path="url(#292cd05984)"><rect x="-123" width="432" fill="#2e2ae1" height="107.999996" y="-61.499999" fill-opacity="1"/></g></g></g></g></g></g><g clip-path="url(#0b9aef59a5)"><g clip-path="url(#88e0af2acb)"><g transform="matrix(1, 0, 0, 1, 57, 29)"><g clip-path="url(#73fdc6d5ac)"><g clip-path="url(#0c4477ee6b)"><g clip-path="url(#02ac5b3f04)"><rect x="-123" width="432" fill="#2e2ae1" height="107.999996" y="-45.499999" fill-opacity="1"/></g></g></g></g></g></g><g clip-path="url(#310b030554)"><g clip-path="url(#8a28453d45)"><g transform="matrix(1, 0, 0, 1, 57, 17)"><g clip-path="url(#a6074bd3c6)"><g clip-path="url(#bf35240756)"><g clip-path="url(#ea8323ac70)"><rect x="-123" width="432" fill="#2e2ae1" height="107.999996" y="-33.499999" fill-opacity="1"/></g></g></g></g></g></g><g clip-path="url(#ebd87690ed)"><g clip-path="url(#aae534b2b4)"><g transform="matrix(1, 0, 0, 1, 115, 26)"><g clip-path="url(#7d1166220e)"><g clip-path="url(#39701fbbc7)"><g clip-path="url(#3f7b158642)"><path fill="#000000" d="M 0.953125 0.578125 L 31.886719 0.578125 L 31.886719 26.976562 L 0.953125 26.976562 Z M 0.953125 0.578125 " fill-opacity="1" fill-rule="nonzero"/></g></g></g></g></g></g><g clip-path="url(#268d1edb5f)"><g clip-path="url(#3d49820c29)"><g transform="matrix(1, 0, 0, 1, 152, 26)"><g clip-path="url(#4e240a0e11)"><g clip-path="url(#d149434274)"><g clip-path="url(#64f11e3e28)"><rect x="-218" width="432" fill="#000000" height="107.999996" y="-42.499999" fill-opacity="1"/></g></g></g></g></g></g><g clip-path="url(#c2f200b46e)"><g transform="matrix(1, 0, 0, 1, 186, 26)"><g clip-path="url(#adae509089)"><g clip-path="url(#b24b616f31)"><rect x="-252" width="432" fill="#000000" height="107.999996" y="-42.499999" fill-opacity="1"/></g></g></g></g><g clip-path="url(#7d374acc26)"><g clip-path="url(#6e4ac58195)"><g transform="matrix(1, 0, 0, 1, 216, 26)"><g clip-path="url(#3c8f4a176c)"><g clip-path="url(#0854642c02)"><g clip-path="url(#4c873f6326)"><rect x="-282" width="432" fill="#000000" height="107.999996" y="-42.499999" fill-opacity="1"/></g></g></g></g></g></g><g clip-path="url(#3fd20cc5f6)"><g clip-path="url(#8c7314eaff)"><g transform="matrix(1, 0, 0, 1, 251, 26)"><g clip-path="url(#d305020e5c)"><g clip-path="url(#e63a198640)"><g clip-path="url(#b553501a5d)"><rect x="-317" width="432" fill="#000000" height="107.999996" y="-42.499999" fill-opacity="1"/></g></g></g></g></g></g></svg>