<svg xmlns="http://www.w3.org/2000/svg" xmlns:xlink="http://www.w3.org/1999/xlink" width="500" zoomAndPan="magnify" viewBox="0 0 375 374.999991" height="500" preserveAspectRatio="xMidYMid meet" version="1.0"><defs><clipPath id="3ad0da6642"><path d="M 18.066406 70.144531 L 175 70.144531 L 175 155 L 18.066406 155 Z M 18.066406 70.144531 " clip-rule="nonzero"/></clipPath><clipPath id="c71ab8a55a"><path d="M 174.796875 70.429688 L 174.796875 114.910156 C 174.796875 114.910156 140.964844 114.601562 104.0625 120.109375 C 103.707031 120.167969 103.355469 120.214844 103.003906 120.261719 C 72.832031 124.847656 40.792969 133.34375 23.644531 149.082031 C 21.683594 150.875 19.902344 152.777344 18.355469 154.785156 L 18.355469 111.074219 C 18.355469 103.023438 41.007812 91.320312 47.972656 88.542969 C 86.132812 73.328125 134.105469 71.289062 174.796875 70.429688 " clip-rule="nonzero"/></clipPath><clipPath id="1dababd3e1"><path d="M 0.238281 0.320312 L 156.960938 0.320312 L 156.960938 84.800781 L 0.238281 84.800781 Z M 0.238281 0.320312 " clip-rule="nonzero"/></clipPath><clipPath id="88a2b1a414"><path d="M 156.796875 0.429688 L 156.796875 44.910156 C 156.796875 44.910156 122.964844 44.601562 86.0625 50.109375 C 85.707031 50.167969 85.355469 50.214844 85.003906 50.261719 C 54.832031 54.847656 22.792969 63.34375 5.644531 79.082031 C 3.683594 80.875 1.902344 82.777344 0.355469 84.785156 L 0.355469 41.074219 C 0.355469 33.023438 23.007812 21.320312 29.972656 18.542969 C 68.132812 3.328125 116.105469 1.289062 156.796875 0.429688 " clip-rule="nonzero"/></clipPath><clipPath id="b265f45a1f"><rect x="0" width="157" y="0" height="85"/></clipPath><clipPath id="980892eb6b"><path d="M 18.066406 137.914062 L 175 137.914062 L 175 222.464844 L 18.066406 222.464844 Z M 18.066406 137.914062 " clip-rule="nonzero"/></clipPath><clipPath id="04ca5c4eec"><path d="M 174.796875 137.914062 L 174.796875 182.394531 C 174.796875 182.394531 140.964844 182.085938 104.0625 187.59375 C 103.707031 187.65625 103.355469 187.699219 103.003906 187.746094 C 72.832031 192.332031 40.792969 200.828125 23.644531 216.566406 C 21.683594 218.359375 19.902344 220.261719 18.355469 222.273438 L 18.355469 178.558594 C 18.355469 170.507812 41.007812 158.804688 47.972656 156.027344 C 86.132812 140.8125 134.105469 138.773438 174.796875 137.914062 " clip-rule="nonzero"/></clipPath><clipPath id="7abacc3c0b"><path d="M 0.238281 0.914062 L 156.960938 0.914062 L 156.960938 85.464844 L 0.238281 85.464844 Z M 0.238281 0.914062 " clip-rule="nonzero"/></clipPath><clipPath id="565592619f"><path d="M 156.796875 0.914062 L 156.796875 45.394531 C 156.796875 45.394531 122.964844 45.085938 86.0625 50.59375 C 85.707031 50.65625 85.355469 50.699219 85.003906 50.746094 C 54.832031 55.332031 22.792969 63.828125 5.644531 79.566406 C 3.683594 81.359375 1.902344 83.261719 0.355469 85.273438 L 0.355469 41.558594 C 0.355469 33.507812 23.007812 21.804688 29.972656 19.027344 C 68.132812 3.8125 116.105469 1.773438 156.796875 0.914062 " clip-rule="nonzero"/></clipPath><clipPath id="03a4d62fe7"><rect x="0" width="157" y="0" height="86"/></clipPath><clipPath id="4db13c76c2"><path d="M 33 214.410156 L 175 214.410156 L 175 273 L 33 273 Z M 33 214.410156 " clip-rule="nonzero"/></clipPath><clipPath id="6dbe6862b2"><path d="M 174.796875 228.40625 L 174.796875 272.886719 C 141.636719 271.980469 106.851562 270.429688 74.765625 261.71875 C 50.917969 255.246094 27.480469 243.085938 34.84375 230.15625 C 35.761719 228.53125 37.128906 227.195312 38.632812 226.089844 C 44.289062 221.933594 52.035156 218.128906 61.589844 214.785156 C 98.832031 223.730469 136.605469 226.78125 174.8125 228.40625 " clip-rule="nonzero"/></clipPath><clipPath id="2d44bdc528"><path d="M 0 0.558594 L 141.960938 0.558594 L 141.960938 59 L 0 59 Z M 0 0.558594 " clip-rule="nonzero"/></clipPath><clipPath id="396e2f28b4"><path d="M 141.796875 14.40625 L 141.796875 58.886719 C 108.636719 57.980469 73.851562 56.429688 41.765625 47.71875 C 17.917969 41.246094 -5.519531 29.085938 1.84375 16.15625 C 2.761719 14.53125 4.128906 13.195312 5.632812 12.089844 C 11.289062 7.933594 19.035156 4.128906 28.589844 0.785156 C 65.832031 9.730469 103.605469 12.78125 141.8125 14.40625 " clip-rule="nonzero"/></clipPath><clipPath id="68c50ebd1a"><rect x="0" width="142" y="0" height="59"/></clipPath><clipPath id="7b59497412"><path d="M 200 220 L 356.933594 220 L 356.933594 305 L 200 305 Z M 200 220 " clip-rule="nonzero"/></clipPath><clipPath id="c12cd040b8"><path d="M 200.203125 304.570312 L 200.203125 260.089844 C 200.203125 260.089844 234.035156 260.398438 270.9375 254.890625 C 271.292969 254.832031 271.644531 254.785156 271.996094 254.738281 C 302.167969 250.152344 334.207031 241.65625 351.355469 225.917969 C 353.316406 224.125 355.097656 222.222656 356.644531 220.214844 L 356.644531 263.925781 C 356.644531 271.976562 333.992188 283.679688 327.027344 286.457031 C 288.867188 301.671875 240.894531 303.710938 200.203125 304.570312 " clip-rule="nonzero"/></clipPath><clipPath id="f1c1cec6af"><path d="M 0.160156 0.078125 L 156.878906 0.078125 L 156.878906 84.800781 L 0.160156 84.800781 Z M 0.160156 0.078125 " clip-rule="nonzero"/></clipPath><clipPath id="48d4ca7e39"><path d="M 0.203125 84.570312 L 0.203125 40.089844 C 0.203125 40.089844 34.035156 40.398438 70.9375 34.890625 C 71.292969 34.832031 71.644531 34.785156 71.996094 34.738281 C 102.167969 30.152344 134.207031 21.65625 151.355469 5.917969 C 153.316406 4.125 155.097656 2.222656 156.644531 0.214844 L 156.644531 43.925781 C 156.644531 51.976562 133.992188 63.679688 127.027344 66.457031 C 88.867188 81.671875 40.894531 83.710938 0.203125 84.570312 " clip-rule="nonzero"/></clipPath><clipPath id="f155bb3463"><rect x="0" width="157" y="0" height="85"/></clipPath><clipPath id="038d2490d2"><path d="M 200 152.152344 L 356.933594 152.152344 L 356.933594 237.371094 L 200 237.371094 Z M 200 152.152344 " clip-rule="nonzero"/></clipPath><clipPath id="cb272480d8"><path d="M 200.203125 237.085938 L 200.203125 192.605469 C 200.203125 192.605469 234.035156 192.914062 270.9375 187.40625 C 271.292969 187.34375 271.644531 187.300781 271.996094 187.253906 C 302.167969 182.667969 334.207031 174.171875 351.355469 158.433594 C 353.316406 156.640625 355.097656 154.738281 356.644531 152.726562 L 356.644531 196.441406 C 356.644531 204.492188 333.992188 216.195312 327.027344 218.972656 C 288.867188 234.1875 240.894531 236.226562 200.203125 237.085938 " clip-rule="nonzero"/></clipPath><clipPath id="fc15d7413a"><path d="M 0.160156 0.640625 L 156.878906 0.640625 L 156.878906 85.121094 L 0.160156 85.121094 Z M 0.160156 0.640625 " clip-rule="nonzero"/></clipPath><clipPath id="b8d5e4c188"><path d="M 0.203125 85.085938 L 0.203125 40.605469 C 0.203125 40.605469 34.035156 40.914062 70.9375 35.40625 C 71.292969 35.34375 71.644531 35.300781 71.996094 35.253906 C 102.167969 30.667969 134.207031 22.171875 151.355469 6.433594 C 153.316406 4.640625 155.097656 2.738281 156.644531 0.726562 L 156.644531 44.441406 C 156.644531 52.492188 133.992188 64.195312 127.027344 66.972656 C 88.867188 82.1875 40.894531 84.226562 0.203125 85.085938 " clip-rule="nonzero"/></clipPath><clipPath id="d0735e3593"><rect x="0" width="157" y="0" height="86"/></clipPath><clipPath id="3fd9d55444"><path d="M 200 102 L 342 102 L 342 160.875 L 200 160.875 Z M 200 102 " clip-rule="nonzero"/></clipPath><clipPath id="8452968530"><path d="M 200.203125 146.59375 L 200.203125 102.113281 C 233.363281 103.019531 268.148438 104.570312 300.234375 113.28125 C 324.082031 119.753906 347.519531 131.914062 340.15625 144.84375 C 339.238281 146.46875 337.886719 147.804688 336.367188 148.910156 C 330.710938 153.066406 322.964844 156.871094 313.410156 160.214844 C 276.183594 151.269531 238.410156 148.21875 200.203125 146.59375 " clip-rule="nonzero"/></clipPath><clipPath id="6622bbab08"><path d="M 0.160156 0 L 142 0 L 142 58.320312 L 0.160156 58.320312 Z M 0.160156 0 " clip-rule="nonzero"/></clipPath><clipPath id="cd63378d62"><path d="M 0.203125 44.59375 L 0.203125 0.113281 C 33.363281 1.019531 68.148438 2.570312 100.234375 11.28125 C 124.082031 17.753906 147.519531 29.914062 140.15625 42.84375 C 139.238281 44.46875 137.886719 45.804688 136.367188 46.910156 C 130.710938 51.066406 122.964844 54.871094 113.410156 58.214844 C 76.183594 49.269531 38.410156 46.21875 0.203125 44.59375 " clip-rule="nonzero"/></clipPath><clipPath id="ca0646fe6a"><rect x="0" width="142" y="0" height="59"/></clipPath></defs><g clip-path="url(#3ad0da6642)"><g clip-path="url(#c71ab8a55a)"><g transform="matrix(1, 0, 0, 1, 18, 70)"><g clip-path="url(#b265f45a1f)"><g clip-path="url(#1dababd3e1)"><g clip-path="url(#88a2b1a414)"><rect x="-100.5" width="540" fill="#2e2ae1" height="539.999987" y="-152.499998" fill-opacity="1"/></g></g></g></g></g></g><g clip-path="url(#980892eb6b)"><g clip-path="url(#04ca5c4eec)"><g transform="matrix(1, 0, 0, 1, 18, 137)"><g clip-path="url(#03a4d62fe7)"><g clip-path="url(#7abacc3c0b)"><g clip-path="url(#565592619f)"><rect x="-100.5" width="540" fill="#2e2ae1" height="539.999987" y="-219.499998" fill-opacity="1"/></g></g></g></g></g></g><g clip-path="url(#4db13c76c2)"><g clip-path="url(#6dbe6862b2)"><g transform="matrix(1, 0, 0, 1, 33, 214)"><g clip-path="url(#68c50ebd1a)"><g clip-path="url(#2d44bdc528)"><g clip-path="url(#396e2f28b4)"><rect x="-115.5" width="540" fill="#2e2ae1" height="539.999987" y="-296.499998" fill-opacity="1"/></g></g></g></g></g></g><g clip-path="url(#7b59497412)"><g clip-path="url(#c12cd040b8)"><g transform="matrix(1, 0, 0, 1, 200, 220)"><g clip-path="url(#f155bb3463)"><g clip-path="url(#f1c1cec6af)"><g clip-path="url(#48d4ca7e39)"><rect x="-282.5" width="540" fill="#2e2ae1" height="539.999987" y="-302.499998" fill-opacity="1"/></g></g></g></g></g></g><g clip-path="url(#038d2490d2)"><g clip-path="url(#cb272480d8)"><g transform="matrix(1, 0, 0, 1, 200, 152)"><g clip-path="url(#d0735e3593)"><g clip-path="url(#fc15d7413a)"><g clip-path="url(#b8d5e4c188)"><rect x="-282.5" width="540" fill="#2e2ae1" height="539.999987" y="-234.499998" fill-opacity="1"/></g></g></g></g></g></g><g clip-path="url(#3fd9d55444)"><g clip-path="url(#8452968530)"><g transform="matrix(1, 0, 0, 1, 200, 102)"><g clip-path="url(#ca0646fe6a)"><g clip-path="url(#6622bbab08)"><g clip-path="url(#cd63378d62)"><rect x="-282.5" width="540" fill="#2e2ae1" height="539.999987" y="-184.499998" fill-opacity="1"/></g></g></g></g></g></g></svg>